<svg aria-hidden="true" style="position: absolute; width: 0; height: 0; overflow: hidden;" version="1.1" xmlns="http://www.w3.org/2000/svg" xmlns:xlink="http://www.w3.org/1999/xlink">
<defs>
<symbol id="icon-Logo" viewBox="0 0 32 32">
<path d="M1.385 16.239c0.022 0.041 0.041 0.085 0.059 0.13 0.019 0.044 0.038 0.089 0.055 0.134 0.018-0.047 0.036-0.093 0.055-0.138s0.039-0.089 0.061-0.13l0.816-1.555c0.010-0.019 0.020-0.035 0.031-0.047 0.011-0.012 0.023-0.020 0.036-0.025 0.014-0.005 0.029-0.008 0.046-0.010s0.036-0.002 0.059-0.002h0.387v2.807h-0.452v-1.813c0-0.034 0.001-0.071 0.002-0.111 0.003-0.040 0.006-0.081 0.010-0.122l-0.833 1.592c-0.019 0.036-0.044 0.065-0.074 0.085-0.030 0.019-0.066 0.029-0.107 0.029h-0.071c-0.041 0-0.076-0.010-0.107-0.029-0.030-0.021-0.055-0.049-0.074-0.085l-0.845-1.598c0.005 0.043 0.008 0.085 0.010 0.126 0.003 0.040 0.004 0.078 0.004 0.113v1.813h-0.452v-2.807h0.387c0.023 0 0.043 0.001 0.059 0.002s0.031 0.005 0.044 0.010c0.014 0.005 0.027 0.014 0.038 0.025s0.022 0.027 0.032 0.047l0.824 1.559z"></path>
<path d="M7.877 17.403h-0.397c-0.045 0-0.081-0.011-0.111-0.033-0.028-0.023-0.048-0.052-0.061-0.085l-0.206-0.573h-1.142l-0.206 0.573c-0.010 0.030-0.031 0.057-0.061 0.082-0.029 0.025-0.065 0.037-0.109 0.037h-0.399l1.083-2.807h0.524l1.083 2.807zM6.092 16.344h0.879l-0.336-0.934c-0.015-0.041-0.032-0.090-0.051-0.146-0.018-0.057-0.036-0.118-0.053-0.184-0.018 0.066-0.036 0.127-0.053 0.184-0.017 0.057-0.033 0.107-0.050 0.149l-0.336 0.93z"></path>
<path d="M10.337 14.597c0.023 0 0.042 0.001 0.057 0.004 0.015 0.001 0.029 0.005 0.040 0.012 0.013 0.005 0.025 0.014 0.036 0.025 0.011 0.010 0.024 0.025 0.038 0.043l1.448 1.877c-0.005-0.045-0.009-0.089-0.011-0.132-0.001-0.044-0.002-0.085-0.002-0.122v-1.706h0.452v2.807h-0.265c-0.041 0-0.074-0.006-0.101-0.019s-0.053-0.036-0.078-0.070l-1.442-1.869c0.004 0.041 0.006 0.083 0.008 0.124 0.003 0.040 0.004 0.077 0.004 0.111v1.724h-0.452v-2.807h0.269z"></path>
<path d="M15.437 17.403h-0.515v-2.807h0.515v2.807z"></path>
<path d="M19.705 14.597v0.415h-1.223v0.831h1.032v0.417h-1.032v1.143h-0.517v-2.807h1.739z"></path>
<path d="M23.754 14.597v0.415h-1.222v0.778h0.963v0.402h-0.963v0.794h1.222v0.417h-1.739v-2.807h1.739z"></path>
<path d="M27.582 15.107c-0.014 0.028-0.030 0.049-0.050 0.060-0.018 0.012-0.039 0.017-0.065 0.017s-0.054-0.010-0.086-0.029c-0.032-0.021-0.069-0.043-0.113-0.068s-0.094-0.047-0.153-0.066c-0.057-0.021-0.125-0.031-0.204-0.031-0.071 0-0.134 0.009-0.187 0.027-0.052 0.017-0.097 0.041-0.134 0.072-0.036 0.031-0.062 0.069-0.080 0.113-0.018 0.043-0.027 0.090-0.027 0.142 0 0.066 0.018 0.121 0.053 0.165 0.037 0.044 0.085 0.082 0.145 0.113s0.128 0.059 0.204 0.083c0.076 0.025 0.154 0.051 0.233 0.080 0.080 0.027 0.158 0.060 0.235 0.097 0.076 0.036 0.144 0.083 0.204 0.14 0.060 0.056 0.107 0.124 0.143 0.206 0.037 0.082 0.055 0.181 0.055 0.297 0 0.127-0.022 0.246-0.065 0.357-0.042 0.11-0.104 0.206-0.187 0.289-0.081 0.082-0.181 0.146-0.299 0.194-0.118 0.047-0.254 0.070-0.406 0.070-0.088 0-0.174-0.009-0.259-0.027-0.085-0.017-0.167-0.041-0.246-0.074-0.078-0.032-0.151-0.071-0.219-0.116-0.067-0.045-0.128-0.096-0.181-0.151l0.149-0.25c0.014-0.018 0.030-0.033 0.050-0.045 0.020-0.013 0.043-0.019 0.067-0.019 0.032 0 0.066 0.014 0.103 0.041 0.037 0.026 0.080 0.055 0.13 0.087 0.051 0.032 0.11 0.062 0.177 0.089 0.069 0.026 0.151 0.039 0.246 0.039 0.146 0 0.259-0.035 0.339-0.105 0.080-0.071 0.12-0.173 0.12-0.305 0-0.074-0.019-0.134-0.055-0.181-0.036-0.047-0.083-0.085-0.143-0.116-0.060-0.032-0.128-0.060-0.204-0.082s-0.154-0.046-0.233-0.072-0.156-0.057-0.233-0.093c-0.076-0.036-0.144-0.083-0.204-0.142s-0.108-0.131-0.145-0.217c-0.036-0.088-0.053-0.196-0.053-0.324 0-0.102 0.020-0.202 0.059-0.299 0.041-0.097 0.099-0.183 0.175-0.258 0.078-0.075 0.172-0.135 0.284-0.181s0.24-0.068 0.383-0.068c0.163 0 0.313 0.026 0.45 0.078s0.254 0.124 0.351 0.217l-0.126 0.247z"></path>
<path d="M32 14.597v0.429h-0.83v2.378h-0.513v-2.378h-0.833v-0.429h2.176z"></path>
</symbol>
<symbol class="icon icon-arrow-1" id="icon-arrow-1" viewBox="0 0 32 32">
<path d="M31.704 16.715c0.395-0.395 0.395-1.034 0-1.429l-6.431-6.431c-0.395-0.395-1.035-0.395-1.429 0s-0.395 1.034 0 1.429l5.716 5.716-5.716 5.716c-0.395 0.395-0.395 1.035 0 1.429s1.035 0.395 1.429 0l6.431-6.431zM0 17.011h30.989v-2.021h-30.989v2.021z"></path>
</symbol>
<symbol class="icon" id="icon-facebook" viewBox="0 0 32 32">
<path d="M23.446 18l0.889-5.791h-5.557v-3.758c0-1.584 0.776-3.129 3.265-3.129h2.526v-4.931c0 0-2.293-0.391-4.484-0.391-4.576 0-7.567 2.774-7.567 7.795v4.414h-5.087v5.791h5.087v14h6.261v-14h4.668z"></path>
</symbol>
<symbol id="icon-instagram" viewBox="0 0 32 32">
<path d="M16.004 7.797c-4.54 0-8.203 3.662-8.203 8.203s3.662 8.203 8.203 8.203c4.54 0 8.203-3.662 8.203-8.203s-3.662-8.203-8.203-8.203zM16.004 21.333c-2.934 0-5.333-2.391-5.333-5.333s2.392-5.333 5.333-5.333c2.941 0 5.333 2.392 5.333 5.333s-2.399 5.333-5.333 5.333v0zM26.455 7.462c0 1.064-0.857 1.913-1.913 1.913-1.064 0-1.913-0.857-1.913-1.913s0.857-1.913 1.913-1.913c1.057 0 1.913 0.857 1.913 1.913zM31.888 9.404c-0.121-2.563-0.707-4.833-2.584-6.703-1.87-1.87-4.141-2.456-6.703-2.584-2.641-0.15-10.558-0.15-13.2 0-2.556 0.121-4.826 0.707-6.703 2.577s-2.456 4.141-2.584 6.703c-0.15 2.641-0.15 10.558 0 13.2 0.121 2.563 0.707 4.833 2.584 6.703s4.141 2.456 6.703 2.584c2.641 0.15 10.558 0.15 13.2 0 2.563-0.121 4.833-0.707 6.703-2.584 1.87-1.87 2.456-4.141 2.584-6.703 0.15-2.641 0.15-10.551 0-13.193v0zM28.475 25.43c-0.557 1.399-1.635 2.477-3.041 3.041-2.106 0.835-7.103 0.642-9.43 0.642s-7.332 0.186-9.43-0.642c-1.399-0.557-2.477-1.635-3.041-3.041-0.835-2.106-0.642-7.103-0.642-9.43s-0.186-7.332 0.642-9.43c0.557-1.399 1.635-2.477 3.041-3.041 2.106-0.835 7.103-0.642 9.43-0.642s7.332-0.186 9.43 0.642c1.399 0.557 2.477 1.635 3.041 3.041 0.835 2.106 0.642 7.103 0.642 9.43s0.193 7.332-0.642 9.43z"></path>
</symbol>
<symbol class="icon" id="icon-linkedin" viewBox="0 0 32 32">
<path d="M7.163 32h-6.634v-21.364h6.634v21.364zM3.842 7.721c-2.121 0-3.842-1.757-3.842-3.879 0-1.019 0.405-1.996 1.125-2.717s1.698-1.125 2.717-1.125c1.019 0 1.996 0.405 2.717 1.125s1.125 1.698 1.125 2.717c0 2.121-1.721 3.879-3.842 3.879zM31.993 32h-6.62v-10.4c0-2.478-0.050-5.657-3.449-5.657-3.449 0-3.978 2.693-3.978 5.479v10.579h-6.627v-21.364h6.363v2.914h0.093c0.886-1.679 3.049-3.45 6.277-3.45 6.714 0 7.948 4.421 7.948 10.164v11.736h-0.007z"></path>
</symbol>
<symbol class="icon"  id="icon-search" viewBox="0 0 32 32">
<path d="M24.662 21.782l7.11 6.701c0.318 0.332 0.302 0.841-0.035 1.156l-1.244 1.173c-0.167 0.159-0.394 0.248-0.631 0.248s-0.464-0.089-0.631-0.248l-7.11-6.701c-0.197-0.185-0.375-0.387-0.533-0.603l-1.333-1.675c-2.206 1.66-4.945 2.564-7.767 2.563-5.816 0.019-10.871-3.762-12.171-9.106s1.502-10.822 6.746-13.194 11.532-1.001 15.14 3.298c3.608 4.3 3.574 10.382-0.082 14.645l1.777 1.156c0.278 0.168 0.534 0.364 0.764 0.586zM3.6 12.669c0 4.626 3.979 8.376 8.887 8.376 2.357 0 4.618-0.882 6.284-2.453s2.603-3.701 2.603-5.923c0-4.626-3.979-8.376-8.887-8.376s-8.887 3.75-8.887 8.376z"></path>
</symbol>
<symbol class="icon" id="icon-twitter" viewBox="0 0 32 32">
<path d="M28.711 9.482c0.020 0.284 0.020 0.569 0.020 0.853 0 8.67-6.599 18.66-18.66 18.66-3.716 0-7.168-1.076-10.071-2.944 0.528 0.061 1.036 0.081 1.584 0.081 3.066 0 5.888-1.036 8.142-2.802-2.883-0.061-5.3-1.949-6.132-4.548 0.406 0.061 0.812 0.102 1.239 0.102 0.589 0 1.178-0.081 1.726-0.223-3.005-0.609-5.259-3.249-5.259-6.437v-0.081c0.873 0.487 1.888 0.792 2.964 0.832-1.766-1.178-2.924-3.188-2.924-5.462 0-1.218 0.325-2.335 0.893-3.31 3.228 3.98 8.081 6.579 13.523 6.863-0.101-0.487-0.162-0.995-0.162-1.502 0-3.614 2.924-6.558 6.558-6.558 1.888 0 3.594 0.792 4.792 2.071 1.482-0.284 2.904-0.833 4.162-1.584-0.487 1.523-1.523 2.802-2.883 3.614 1.32-0.142 2.599-0.508 3.777-1.015-0.893 1.299-2.010 2.457-3.289 3.391z"></path>
</symbol>
</defs>
</svg>